<?xml version="1.0" encoding="utf-8"?>
<!-- Generator: Adobe Illustrator 20.1.0, SVG Export Plug-In . SVG Version: 6.00 Build 0)  -->
<svg version="1.1" id="Layer_1" xmlns="http://www.w3.org/2000/svg" xmlns:xlink="http://www.w3.org/1999/xlink" x="0px" y="0px"
	 viewBox="0 0 246 120" style="enable-background:new 0 0 246 120;" xml:space="preserve">
<style type="text/css">
	.st0{fill:#334996;}
	.st1{fill-rule:evenodd;clip-rule:evenodd;fill:#F07B57;}
</style>
<path class="st0" d="M3.1,99H15l21.8-29.1c1.8-2.3,3.4-4.5,5.2-6.9h0.2c-0.3,1.8-0.3,5.5-0.3,7.9V99h12.8V43.6H41.9l-21,28
	c-1.8,2.3-3.4,4.4-4.9,6.7h-0.2c0.2-2.9,0.2-6.9,0.2-9.1V43.6H3.1V99z"/>
<path class="st0" d="M63.8,99h16.3c17.4,0,23.4-7.6,23.4-17.6c0-7.2-3.1-11.7-7.8-14.2c-4.3-2.4-9.8-3.1-15.7-3.1h-3.4V53.9h16.8
	l8.1-10.3H63.8V99z M76.6,88.5V74.4h3.4c3.1,0,6,0.3,8,1.6c1.6,1,2.6,2.8,2.6,5.5c0,4.8-2.9,7.1-10.3,7.1H76.6z"/>
<path class="st0" d="M109.6,99h12.8V70.3c0-1.5,0-3.7-0.1-5.5h0.2c1.2,2.1,2.5,3.8,3.7,5.4l10.2,14.1h5.6l9-13.6
	c0.9-1.4,3.2-4.7,3.7-5.9h0.1c-0.1,1.7-0.1,3.9-0.1,6V99h12.8V43.6h-11.7l-12.4,18.9c-1.7,2.6-3,5-4,7h-0.2
	c-1.3-2.2-2.6-4.2-4.3-6.6l-13.8-19.3h-11.6V99z"/>
<polygon class="st0" points="171.5,99 185.3,99 198.7,80.5 210.9,99 225.1,99 187.5,43.6 173.4,43.6 191.6,71.2 "/>
<path class="st1" d="M225.6,22.1c-2,0-3.8,0.6-5.4,1.5l-3.4-4.7c2-1.9,3.3-4.6,3.3-7.6c0-5.7-4.6-10.4-10.4-10.4
	s-10.4,4.6-10.4,10.4s4.6,10.4,10.4,10.4c1.8,0,3.6-0.5,5.1-1.3l3.4,4.7c-1.9,1.9-3,4.5-3,7.3c0,3,1.3,5.7,3.3,7.6l-3.7,5.1
	c-1.5-0.8-3.2-1.3-5.1-1.3c-5.7,0-10.4,4.6-10.4,10.4c0,5.7,4.6,10.4,10.4,10.4s10.4-4.6,10.4-10.4c0-3-1.3-5.7-3.3-7.6l3.7-5.1
	c1.5,0.8,3.2,1.3,5.1,1.3c5.7,0,10.4-4.6,10.4-10.4S231.4,22.1,225.6,22.1 M209.9,16.7c-2.9,0-5.2-2.3-5.2-5.2s2.3-5.2,5.2-5.2
	c2.9,0,5.2,2.3,5.2,5.2S212.8,16.7,209.9,16.7 M209.9,59.5c-2.9,0-5.2-2.3-5.2-5.2c0-2.9,2.3-5.2,5.2-5.2c2.9,0,5.2,2.3,5.2,5.2
	C215.1,57.2,212.8,59.5,209.9,59.5 M225.8,37.8c-2.9,0-5.2-2.3-5.2-5.2c0-2.9,2.3-5.2,5.2-5.2c2.9,0,5.2,2.3,5.2,5.2
	C231,35.5,228.7,37.8,225.8,37.8"/>
</svg>
